<mxfile host="app.diagrams.net" agent="Mozilla/5.0 (X11; Linux x86_64) AppleWebKit/537.36 (KHTML, like Gecko) Chrome/103.0.0.0 Safari/537.36" version="24.7.7">
  <diagram id="C5RBs43oDa-KdzZeNtuy" name="Page-1">
    <mxGraphModel dx="2074" dy="1149" grid="1" gridSize="10" guides="1" tooltips="1" connect="1" arrows="1" fold="1" page="1" pageScale="1" pageWidth="827" pageHeight="1169" math="0" shadow="0">
      <root>
        <mxCell id="WIyWlLk6GJQsqaUBKTNV-0" />
        <mxCell id="WIyWlLk6GJQsqaUBKTNV-1" parent="WIyWlLk6GJQsqaUBKTNV-0" />
        <mxCell id="tLCk2Z_N4fmyLMVnDvFi-4" style="edgeStyle=orthogonalEdgeStyle;rounded=0;orthogonalLoop=1;jettySize=auto;html=1;exitX=1;exitY=0.5;exitDx=0;exitDy=0;exitPerimeter=0;entryX=0;entryY=0.5;entryDx=0;entryDy=0;" edge="1" parent="WIyWlLk6GJQsqaUBKTNV-1" source="tLCk2Z_N4fmyLMVnDvFi-1" target="tLCk2Z_N4fmyLMVnDvFi-3">
          <mxGeometry relative="1" as="geometry" />
        </mxCell>
        <mxCell id="tLCk2Z_N4fmyLMVnDvFi-1" value="Start" style="html=1;dashed=0;whiteSpace=wrap;shape=mxgraph.dfd.start" vertex="1" parent="WIyWlLk6GJQsqaUBKTNV-1">
          <mxGeometry x="255" y="180" width="80" height="30" as="geometry" />
        </mxCell>
        <mxCell id="tLCk2Z_N4fmyLMVnDvFi-6" style="edgeStyle=orthogonalEdgeStyle;rounded=0;orthogonalLoop=1;jettySize=auto;html=1;exitX=1;exitY=0.5;exitDx=0;exitDy=0;entryX=0;entryY=0.5;entryDx=0;entryDy=0;" edge="1" parent="WIyWlLk6GJQsqaUBKTNV-1" source="tLCk2Z_N4fmyLMVnDvFi-3" target="tLCk2Z_N4fmyLMVnDvFi-5">
          <mxGeometry relative="1" as="geometry" />
        </mxCell>
        <mxCell id="tLCk2Z_N4fmyLMVnDvFi-3" value="Get Metrics&amp;nbsp;&lt;div&gt;Vector (M)&lt;/div&gt;" style="shape=parallelogram;perimeter=parallelogramPerimeter;whiteSpace=wrap;html=1;fixedSize=1;" vertex="1" parent="WIyWlLk6GJQsqaUBKTNV-1">
          <mxGeometry x="414" y="160" width="170" height="70" as="geometry" />
        </mxCell>
        <mxCell id="tLCk2Z_N4fmyLMVnDvFi-8" style="edgeStyle=orthogonalEdgeStyle;rounded=0;orthogonalLoop=1;jettySize=auto;html=1;exitX=0.5;exitY=1;exitDx=0;exitDy=0;entryX=0.5;entryY=0;entryDx=0;entryDy=0;" edge="1" parent="WIyWlLk6GJQsqaUBKTNV-1" source="tLCk2Z_N4fmyLMVnDvFi-5" target="tLCk2Z_N4fmyLMVnDvFi-10">
          <mxGeometry relative="1" as="geometry">
            <mxPoint x="295" y="490" as="targetPoint" />
          </mxGeometry>
        </mxCell>
        <mxCell id="tLCk2Z_N4fmyLMVnDvFi-5" value="Set Maze Sampling&lt;div&gt;Algorithm Using&amp;nbsp;&lt;/div&gt;&lt;div&gt;Histogram of Metrics&lt;/div&gt;" style="rounded=0;whiteSpace=wrap;html=1;" vertex="1" parent="WIyWlLk6GJQsqaUBKTNV-1">
          <mxGeometry x="640" y="155" width="160" height="80" as="geometry" />
        </mxCell>
        <mxCell id="tLCk2Z_N4fmyLMVnDvFi-10" value="Solution Generation" style="rounded=0;whiteSpace=wrap;html=1;verticalAlign=bottom;align=right;" vertex="1" parent="WIyWlLk6GJQsqaUBKTNV-1">
          <mxGeometry x="174" y="300" width="220" height="520" as="geometry" />
        </mxCell>
        <mxCell id="tLCk2Z_N4fmyLMVnDvFi-17" style="edgeStyle=orthogonalEdgeStyle;rounded=0;orthogonalLoop=1;jettySize=auto;html=1;exitX=0.5;exitY=1;exitDx=0;exitDy=0;" edge="1" parent="WIyWlLk6GJQsqaUBKTNV-1" source="tLCk2Z_N4fmyLMVnDvFi-11" target="tLCk2Z_N4fmyLMVnDvFi-12">
          <mxGeometry relative="1" as="geometry" />
        </mxCell>
        <mxCell id="tLCk2Z_N4fmyLMVnDvFi-11" value="Generate Inital Population using MSA" style="rounded=1;whiteSpace=wrap;html=1;" vertex="1" parent="WIyWlLk6GJQsqaUBKTNV-1">
          <mxGeometry x="229" y="340" width="120" height="60" as="geometry" />
        </mxCell>
        <mxCell id="tLCk2Z_N4fmyLMVnDvFi-18" style="edgeStyle=orthogonalEdgeStyle;rounded=0;orthogonalLoop=1;jettySize=auto;html=1;exitX=0.5;exitY=1;exitDx=0;exitDy=0;" edge="1" parent="WIyWlLk6GJQsqaUBKTNV-1" source="tLCk2Z_N4fmyLMVnDvFi-12" target="tLCk2Z_N4fmyLMVnDvFi-14">
          <mxGeometry relative="1" as="geometry" />
        </mxCell>
        <mxCell id="tLCk2Z_N4fmyLMVnDvFi-12" value="Population of&lt;div&gt;sample solutions&lt;/div&gt;" style="rounded=1;whiteSpace=wrap;html=1;" vertex="1" parent="WIyWlLk6GJQsqaUBKTNV-1">
          <mxGeometry x="229" y="450" width="120" height="60" as="geometry" />
        </mxCell>
        <mxCell id="tLCk2Z_N4fmyLMVnDvFi-19" style="edgeStyle=orthogonalEdgeStyle;rounded=0;orthogonalLoop=1;jettySize=auto;html=1;exitX=0.5;exitY=1;exitDx=0;exitDy=0;entryX=0.5;entryY=0;entryDx=0;entryDy=0;" edge="1" parent="WIyWlLk6GJQsqaUBKTNV-1" source="tLCk2Z_N4fmyLMVnDvFi-14" target="tLCk2Z_N4fmyLMVnDvFi-15">
          <mxGeometry relative="1" as="geometry" />
        </mxCell>
        <mxCell id="tLCk2Z_N4fmyLMVnDvFi-14" value="Measure metrics of samples" style="rounded=0;whiteSpace=wrap;html=1;" vertex="1" parent="WIyWlLk6GJQsqaUBKTNV-1">
          <mxGeometry x="229" y="550" width="120" height="60" as="geometry" />
        </mxCell>
        <mxCell id="tLCk2Z_N4fmyLMVnDvFi-27" style="edgeStyle=orthogonalEdgeStyle;rounded=0;orthogonalLoop=1;jettySize=auto;html=1;exitX=1;exitY=0.5;exitDx=0;exitDy=0;entryX=0;entryY=0.5;entryDx=0;entryDy=0;entryPerimeter=0;" edge="1" parent="WIyWlLk6GJQsqaUBKTNV-1" source="tLCk2Z_N4fmyLMVnDvFi-15">
          <mxGeometry relative="1" as="geometry">
            <mxPoint x="414" y="592.5" as="targetPoint" />
            <Array as="points">
              <mxPoint x="374" y="705" />
              <mxPoint x="374" y="593" />
            </Array>
          </mxGeometry>
        </mxCell>
        <mxCell id="tLCk2Z_N4fmyLMVnDvFi-15" value="Check Fitting&lt;div&gt;using fitness&lt;/div&gt;&lt;div&gt;function&lt;/div&gt;" style="rhombus;whiteSpace=wrap;html=1;" vertex="1" parent="WIyWlLk6GJQsqaUBKTNV-1">
          <mxGeometry x="229" y="640" width="120" height="130" as="geometry" />
        </mxCell>
        <mxCell id="tLCk2Z_N4fmyLMVnDvFi-21" style="edgeStyle=orthogonalEdgeStyle;rounded=0;orthogonalLoop=1;jettySize=auto;html=1;exitX=0;exitY=0.5;exitDx=0;exitDy=0;entryX=0;entryY=0.5;entryDx=0;entryDy=0;" edge="1" parent="WIyWlLk6GJQsqaUBKTNV-1" source="tLCk2Z_N4fmyLMVnDvFi-15" target="tLCk2Z_N4fmyLMVnDvFi-12">
          <mxGeometry relative="1" as="geometry" />
        </mxCell>
        <mxCell id="tLCk2Z_N4fmyLMVnDvFi-24" value="Selection&lt;div&gt;&amp;amp;&lt;/div&gt;&lt;div&gt;Variation&lt;/div&gt;" style="edgeLabel;html=1;align=center;verticalAlign=middle;resizable=0;points=[];" vertex="1" connectable="0" parent="tLCk2Z_N4fmyLMVnDvFi-21">
          <mxGeometry x="0.0308" y="-1" relative="1" as="geometry">
            <mxPoint y="55" as="offset" />
          </mxGeometry>
        </mxCell>
        <mxCell id="tLCk2Z_N4fmyLMVnDvFi-25" value="Yes" style="text;html=1;align=center;verticalAlign=middle;whiteSpace=wrap;rounded=0;" vertex="1" parent="WIyWlLk6GJQsqaUBKTNV-1">
          <mxGeometry x="329" y="720" width="60" height="30" as="geometry" />
        </mxCell>
        <mxCell id="tLCk2Z_N4fmyLMVnDvFi-37" style="edgeStyle=orthogonalEdgeStyle;rounded=0;orthogonalLoop=1;jettySize=auto;html=1;exitX=0.5;exitY=0;exitDx=0;exitDy=0;exitPerimeter=0;entryX=0.5;entryY=0;entryDx=0;entryDy=0;" edge="1" parent="WIyWlLk6GJQsqaUBKTNV-1" source="tLCk2Z_N4fmyLMVnDvFi-26" target="tLCk2Z_N4fmyLMVnDvFi-35">
          <mxGeometry relative="1" as="geometry">
            <Array as="points">
              <mxPoint x="470" y="280" />
              <mxPoint x="657" y="280" />
            </Array>
          </mxGeometry>
        </mxCell>
        <mxCell id="tLCk2Z_N4fmyLMVnDvFi-26" value="&lt;div&gt;&lt;br&gt;&lt;/div&gt;&lt;div&gt;&lt;br&gt;&lt;/div&gt;Potential&amp;nbsp;&lt;div&gt;Solution&lt;div&gt;Paths&lt;/div&gt;&lt;/div&gt;" style="strokeWidth=2;html=1;shape=mxgraph.flowchart.database;whiteSpace=wrap;" vertex="1" parent="WIyWlLk6GJQsqaUBKTNV-1">
          <mxGeometry x="420" y="525" width="100" height="95" as="geometry" />
        </mxCell>
        <mxCell id="tLCk2Z_N4fmyLMVnDvFi-28" value="No" style="text;html=1;align=center;verticalAlign=middle;whiteSpace=wrap;rounded=0;" vertex="1" parent="WIyWlLk6GJQsqaUBKTNV-1">
          <mxGeometry x="189" y="720" width="60" height="30" as="geometry" />
        </mxCell>
        <mxCell id="tLCk2Z_N4fmyLMVnDvFi-35" value="Maze Generation" style="rounded=0;whiteSpace=wrap;html=1;verticalAlign=bottom;align=right;" vertex="1" parent="WIyWlLk6GJQsqaUBKTNV-1">
          <mxGeometry x="546.5" y="300" width="220" height="520" as="geometry" />
        </mxCell>
        <mxCell id="tLCk2Z_N4fmyLMVnDvFi-46" style="edgeStyle=orthogonalEdgeStyle;rounded=0;orthogonalLoop=1;jettySize=auto;html=1;exitX=0.5;exitY=1;exitDx=0;exitDy=0;entryX=0.5;entryY=0;entryDx=0;entryDy=0;" edge="1" parent="WIyWlLk6GJQsqaUBKTNV-1" source="tLCk2Z_N4fmyLMVnDvFi-32" target="tLCk2Z_N4fmyLMVnDvFi-38">
          <mxGeometry relative="1" as="geometry" />
        </mxCell>
        <mxCell id="tLCk2Z_N4fmyLMVnDvFi-32" value="Generate Mazes&amp;nbsp;&lt;div&gt;using Solution Paths and adding DE Trees&lt;/div&gt;" style="rounded=1;whiteSpace=wrap;html=1;" vertex="1" parent="WIyWlLk6GJQsqaUBKTNV-1">
          <mxGeometry x="584" y="340" width="145" height="70" as="geometry" />
        </mxCell>
        <mxCell id="tLCk2Z_N4fmyLMVnDvFi-47" style="edgeStyle=orthogonalEdgeStyle;rounded=0;orthogonalLoop=1;jettySize=auto;html=1;exitX=0.5;exitY=1;exitDx=0;exitDy=0;entryX=0.5;entryY=0;entryDx=0;entryDy=0;" edge="1" parent="WIyWlLk6GJQsqaUBKTNV-1" source="tLCk2Z_N4fmyLMVnDvFi-38" target="tLCk2Z_N4fmyLMVnDvFi-39">
          <mxGeometry relative="1" as="geometry" />
        </mxCell>
        <mxCell id="tLCk2Z_N4fmyLMVnDvFi-38" value="Population of Sample Mazes" style="rounded=1;whiteSpace=wrap;html=1;" vertex="1" parent="WIyWlLk6GJQsqaUBKTNV-1">
          <mxGeometry x="596.5" y="445" width="145" height="70" as="geometry" />
        </mxCell>
        <mxCell id="tLCk2Z_N4fmyLMVnDvFi-41" style="edgeStyle=orthogonalEdgeStyle;rounded=0;orthogonalLoop=1;jettySize=auto;html=1;exitX=0.5;exitY=1;exitDx=0;exitDy=0;entryX=0.5;entryY=0;entryDx=0;entryDy=0;" edge="1" parent="WIyWlLk6GJQsqaUBKTNV-1" source="tLCk2Z_N4fmyLMVnDvFi-39" target="tLCk2Z_N4fmyLMVnDvFi-40">
          <mxGeometry relative="1" as="geometry" />
        </mxCell>
        <mxCell id="tLCk2Z_N4fmyLMVnDvFi-39" value="Measure Metrics&lt;div&gt;of samples&lt;/div&gt;" style="rounded=0;whiteSpace=wrap;html=1;" vertex="1" parent="WIyWlLk6GJQsqaUBKTNV-1">
          <mxGeometry x="609" y="550" width="120" height="60" as="geometry" />
        </mxCell>
        <mxCell id="tLCk2Z_N4fmyLMVnDvFi-40" value="Check Fitting&lt;div&gt;using fitness&lt;/div&gt;&lt;div&gt;function&lt;/div&gt;" style="rhombus;whiteSpace=wrap;html=1;" vertex="1" parent="WIyWlLk6GJQsqaUBKTNV-1">
          <mxGeometry x="609" y="640" width="120" height="130" as="geometry" />
        </mxCell>
        <mxCell id="tLCk2Z_N4fmyLMVnDvFi-42" value="&lt;div&gt;&lt;br&gt;&lt;/div&gt;&lt;div&gt;&lt;br&gt;&lt;/div&gt;Potential&amp;nbsp;&lt;div&gt;Mazes&lt;/div&gt;" style="strokeWidth=2;html=1;shape=mxgraph.flowchart.database;whiteSpace=wrap;" vertex="1" parent="WIyWlLk6GJQsqaUBKTNV-1">
          <mxGeometry x="790" y="525" width="100" height="95" as="geometry" />
        </mxCell>
        <mxCell id="tLCk2Z_N4fmyLMVnDvFi-43" style="edgeStyle=orthogonalEdgeStyle;rounded=0;orthogonalLoop=1;jettySize=auto;html=1;exitX=1;exitY=0.5;exitDx=0;exitDy=0;entryX=0;entryY=0.5;entryDx=0;entryDy=0;entryPerimeter=0;" edge="1" parent="WIyWlLk6GJQsqaUBKTNV-1" source="tLCk2Z_N4fmyLMVnDvFi-40" target="tLCk2Z_N4fmyLMVnDvFi-42">
          <mxGeometry relative="1" as="geometry">
            <Array as="points">
              <mxPoint x="750" y="705" />
              <mxPoint x="750" y="573" />
            </Array>
          </mxGeometry>
        </mxCell>
        <mxCell id="tLCk2Z_N4fmyLMVnDvFi-44" style="edgeStyle=orthogonalEdgeStyle;rounded=0;orthogonalLoop=1;jettySize=auto;html=1;exitX=0;exitY=0.5;exitDx=0;exitDy=0;entryX=-0.007;entryY=0.414;entryDx=0;entryDy=0;entryPerimeter=0;" edge="1" parent="WIyWlLk6GJQsqaUBKTNV-1" source="tLCk2Z_N4fmyLMVnDvFi-40" target="tLCk2Z_N4fmyLMVnDvFi-38">
          <mxGeometry relative="1" as="geometry" />
        </mxCell>
        <mxCell id="tLCk2Z_N4fmyLMVnDvFi-45" value="Selection&lt;div&gt;&amp;amp;&lt;/div&gt;&lt;div&gt;Variation&lt;/div&gt;" style="edgeLabel;html=1;align=center;verticalAlign=middle;resizable=0;points=[];" vertex="1" connectable="0" parent="tLCk2Z_N4fmyLMVnDvFi-44">
          <mxGeometry x="0.0514" y="-1" relative="1" as="geometry">
            <mxPoint y="52" as="offset" />
          </mxGeometry>
        </mxCell>
      </root>
    </mxGraphModel>
  </diagram>
</mxfile>
